<svg xmlns="http://www.w3.org/2000/svg" width="32" height="31.75" viewBox="0 0 32 31.75">
  <defs>
    <style>
      .cls-1 {
        fill: #9965e3;
        fill-rule: evenodd;
      }
    </style>
  </defs>
  <path id="Vector" class="cls-1" d="M2063.48,600.655a12.844,12.844,0,0,0-2.02-17.428,13.071,13.071,0,0,0-17.66.676,12.842,12.842,0,0,0-.66,17.531,13.06,13.06,0,0,0,17.55,2h0a1.675,1.675,0,0,0,.2.228l7.69,7.645a2.028,2.028,0,0,0,1.42.582,1.99,1.99,0,0,0,1.41-.581,1.967,1.967,0,0,0,0-2.809l-7.7-7.645a1.39,1.39,0,0,0-.23-0.2h0Zm0.52-7.633a10.724,10.724,0,0,1-.84,4.18,10.934,10.934,0,0,1-5.95,5.911,11.055,11.055,0,0,1-11.99-2.368,10.87,10.87,0,0,1,0-15.445,11.06,11.06,0,0,1,15.56,0,10.892,10.892,0,0,1,3.22,7.722h0Z" transform="translate(-2040 -580.125)"/>
</svg>
